<?xml version="1.0" encoding="utf-8"?>
<!-- Generator: Adobe Illustrator 16.0.0, SVG Export Plug-In . SVG Version: 6.00 Build 0)  -->
<!DOCTYPE svg PUBLIC "-//W3C//DTD SVG 1.1//EN" "http://www.w3.org/Graphics/SVG/1.1/DTD/svg11.dtd">
<svg version="1.1" id="Layer_1" xmlns="http://www.w3.org/2000/svg" xmlns:xlink="http://www.w3.org/1999/xlink" x="0px" y="0px"
	 width="99.173px" height="99.2px" viewBox="0 0 99.173 99.2" enable-background="new 0 0 99.173 99.2" xml:space="preserve">
<path fill="#ABABAB" d="M41.476,0.743c11.929-2.22,24.55,0.65,34.78,7.06c10.868,6.8,18.72,18.08,21.608,30.55
	c2.87,11.9,0.941,24.791-5.029,35.45c-7.119,12.961-20.391,22.32-35,24.631c-14.13,2.67-29.221-1.79-40.221-10.91
	c-15.059-12.5-21.49-34.351-15.24-52.95C7.646,17.073,23.444,3.503,41.476,0.743 M16.045,19.053c-7.62,8.36-12.04,19.69-11.65,31.03
	c-0.22,13.48,6.45,26.561,16.839,35.01c2.361-4.399,4.89-8.84,8.741-12.119c8.219-7.721,21.099-9.95,31.349-5.16
	c7.54,3.29,13.13,9.83,16.481,17.21c10.62-8.21,17.148-21.521,16.979-34.95c0.38-11.57-4.199-23.18-12.17-31.55
	c-8.519-9.16-21.049-14.54-33.58-14.12C36.614,4.263,24.346,9.873,16.045,19.053"/>
<path fill="#ABABAB" d="M44.465,25.603c9.02-3.04,19.52,2.74,22.279,11.72c2.781,8.09-1.09,17.859-8.83,21.609
	c-8.608,4.62-20.648,0.94-24.599-8.17C28.345,41.233,34.135,28.363,44.465,25.603"/>
</svg>
