<?xml version="1.0" encoding="utf-8"?>
<!-- Generator: Adobe Illustrator 19.0.0, SVG Export Plug-In . SVG Version: 6.00 Build 0)  -->
<svg version="1.1" id="Capa_1" xmlns="http://www.w3.org/2000/svg" xmlns:xlink="http://www.w3.org/1999/xlink" x="0px" y="0px"
	 viewBox="601.5 212.5 369.7 368.5" style="enable-background:new 601.5 212.5 369.7 368.5;" xml:space="preserve">
<style type="text/css">
	.st0{fill:#ABABAB;}
</style>
<g>
	<g>
		<g>
			<path class="st0" d="M966.7,554.8L861.9,450c20.3-25.1,32.5-56.9,32.5-91.6c0-80.4-65.4-145.9-145.9-145.9
				c-80.4,0-145.9,65.4-145.9,145.9s65.4,145.9,145.9,145.9c34.7,0,66.6-12.2,91.6-32.5L945,576.5c3,3,6.9,4.5,10.9,4.5
				s7.9-1.5,10.9-4.5C972.7,570.5,972.7,560.8,966.7,554.8z M748.5,473.5c-63.5,0-115.2-51.6-115.2-115.2S685,243.2,748.5,243.2
				c63.5,0,115.2,51.6,115.2,115.2S812,473.5,748.5,473.5z"/>
		</g>
	</g>
</g>
</svg>
