<?xml version="1.0" encoding="utf-8"?>
<!-- Generator: Adobe Illustrator 17.0.0, SVG Export Plug-In . SVG Version: 6.00 Build 0)  -->
<!DOCTYPE svg PUBLIC "-//W3C//DTD SVG 1.1//EN" "http://www.w3.org/Graphics/SVG/1.1/DTD/svg11.dtd">
<svg version="1.1" id="Layer_1" xmlns="http://www.w3.org/2000/svg" xmlns:xlink="http://www.w3.org/1999/xlink" x="0px" y="0px"
	 width="153px" height="46px" viewBox="0 0 153 46" enable-background="new 0 0 153 46" xml:space="preserve">
<g>
	<path fill="#CB2026" d="M112.432,33.3h3.593l2.416-3.036h-2.757V20.197l2.974-3.407h-2.974v-6.102l-3.252,3.16V33.3
		 M105.679,26.113v-7.217l2.664,4.058L105.679,26.113 M102.395,33.3h5.018l2.85-3.036h-4.584v-3.098l5.297-6.195l-3.438-4.925
		l-5.111,5.204V33.3 M90.532,33.3h3.283V20.662l1.487-1.363l1.177,1.425v12.607h2.788l2.385-3.036h-2.013V18.803l-2.199-2.788
		l-3.624,3.748v-3.717l-3.283,3.407V33.3 M117.697,36.149H41.094v-1.053h76.603V36.149"/>
	<path fill="#CB2026" d="M32.328,9.541c0,2.881-2.323,5.204-5.266,5.204c-2.881,0-5.235-2.323-5.235-5.204
		c0-2.943,2.323-5.266,5.235-5.266S32.328,6.598,32.328,9.541 M30.222,27.166l-1.332,0.929v1.425h1.332V27.166"/>
	<path fill="#293787" d="M71.234,19.453l3.283-3.469v2.974l2.912-2.974l2.416,3.036l3.221-3.036l2.354,2.85v11.43h1.982L84.986,33.3
		H82.26V20.817l-1.425-1.797l-0.929,0.929V33.3H76.87V20.631l-1.425-1.673l-0.929,0.929V33.3h-3.282V19.453 M59.556,26.113
		l5.576-5.08l-2.23-2.416v2.54h-3.531v-0.558l5.514-4.584l3.407,3.531v10.718h2.106L67.982,33.3h-2.85v-2.54L62.22,33.3h-2.664
		V26.113 M65.131,30.264v-8.333l-2.354,2.168v6.164h2.354 M47.785,19.453l3.283-3.469v3.779l3.655-3.779l2.168,2.788v11.461h1.983
		l-2.354,3.036h-2.788V20.631l-1.177-1.363l-1.487,1.363v12.638h-3.283V19.453 M41.032,13.816l3.283-3.16v6.071h2.912l-2.912,3.407
		v10.129h2.726l-2.416,3.036h-3.593L41.032,13.816 M30.965,21.25l5.08-5.266l3.469,4.956l-5.266,6.195v3.098h4.584l-2.85,3.036
		h-5.018L30.965,21.25 M36.912,22.923l-2.664-4.089v7.248L36.912,22.923 M24.894,19.453l3.221-3.469v14.249h1.982l-2.354,3.036
		h-2.85L24.894,19.453"/>
	<polygon fill="#293787" points="41.156,38.473 42.674,38.473 44.316,41.849 44.563,41.849 46.205,38.473 47.723,38.473 
		45.493,42.964 43.386,42.964 	"/>
	<rect x="48.095" y="38.473" fill="#293787" width="1.456" height="4.492"/>
	<polygon fill="#293787" points="50.325,38.473 55.312,38.473 55.312,39.526 51.688,39.526 51.688,40.176 55.157,40.176 
		55.157,41.167 51.688,41.167 51.688,41.88 55.343,41.88 55.343,42.964 50.325,42.964 	"/>
	<polygon fill="#293787" points="55.622,38.473 61.074,38.473 61.074,39.619 59.06,39.619 59.06,42.964 57.604,42.964 
		57.604,39.619 55.591,39.619 55.591,38.473 	"/>
	<polygon fill="#293787" points="61.569,38.473 63.985,38.473 66.339,41.849 66.494,41.849 66.463,38.473 67.857,38.473 
		67.857,42.964 65.472,42.964 63.087,39.619 62.932,39.619 62.963,42.964 61.569,42.964 	"/>
	<path fill="#293787" d="M73.526,42.964l-0.403-0.774h-2.974l-0.372,0.774h-1.58l2.385-4.492h2.137l2.354,4.492H73.526z
		 M72.658,41.229l-0.867-1.704h-0.279l-0.867,1.704H72.658z"/>
	<polygon fill="#293787" points="75.446,38.473 77.924,38.473 79.256,41.384 80.588,38.473 83.066,38.473 83.066,42.964 
		81.734,42.964 81.765,39.588 81.549,39.588 79.845,42.964 78.699,42.964 76.995,39.588 76.778,39.588 76.809,42.964 75.446,42.964 
			"/>
	<polygon fill="#293787" points="83.903,38.473 86.319,38.473 88.673,41.849 88.828,41.849 88.797,38.473 90.191,38.473 
		90.191,42.964 87.806,42.964 85.421,39.619 85.266,39.619 85.297,42.964 83.903,42.964 	"/>
	<polygon fill="#293787" points="90.965,38.473 95.952,38.473 95.952,39.526 92.328,39.526 92.328,40.176 95.797,40.176 
		95.797,41.167 92.328,41.167 92.328,41.88 95.983,41.88 95.983,42.964 90.965,42.964 	"/>
	<polygon fill="#293787" points="96.262,38.473 101.714,38.473 101.714,39.619 99.7,39.619 99.7,42.964 98.245,42.964 
		98.245,39.619 96.231,39.619 96.231,38.473 	"/>
	<rect x="102.24" y="41.787" fill="#293787" width="1.456" height="1.208"/>
	<polygon fill="#293787" points="104.161,38.473 105.679,38.473 107.32,41.849 107.568,41.849 109.21,38.473 110.728,38.473 
		108.529,42.964 106.422,42.964 	"/>
	<polygon fill="#293787" points="111.069,38.473 113.485,38.473 115.839,41.849 115.994,41.849 115.963,38.473 117.357,38.473 
		117.357,42.964 114.972,42.964 112.586,39.619 112.432,39.619 112.462,42.964 111.069,42.964 	"/>
	<polygon fill="#CB2026" points="35.023,27.445 40.258,21.281 40.258,27.166 37.842,29.49 35.023,29.49 	"/>
	<polygon fill="#CB2026" points="45.059,22.52 46.887,20.754 47.01,19.144 51.812,14.064 51.843,15.984 65.906,2.633 46.391,15.984 
		48.869,15.984 45.059,20.414 	"/>
	<path fill="#CB2026" d="M33.071,34.043L20.712,46c0,0-3.407-18.616-19.298-30.016H20.96v17.563l3.16-2.199v2.695h3.996l2.106-2.695
		v2.695H33.071z"/>
	
		<linearGradient id="SVGID_1_" gradientUnits="userSpaceOnUse" x1="-237.8861" y1="-410.718" x2="-236.8861" y2="-410.718" gradientTransform="matrix(-8.6674 -3.8101 -3.8101 8.6674 -3488.4031 2684.9463)">
		<stop  offset="0" style="stop-color:#9D1B33"/>
		<stop  offset="0.9946" style="stop-color:#C72128"/>
		<stop  offset="1" style="stop-color:#C72128"/>
	</linearGradient>
	<path fill="url(#SVGID_1_)" d="M124.729,11.028c-1.58,0.929-2.54,2.571-2.54,4.43l0.062,13.165l0.031,5.328v3.872
		c0,0.929,0.248,1.797,0.681,2.54s1.084,1.394,1.89,1.859c1.611,0.929,3.5,0.898,5.08-0.031l19.329-11.244
		c1.58-0.929,2.54-2.571,2.54-4.43c0-1.828-0.96-3.469-2.571-4.399l-4.213-2.385l-15.209-8.704
		C128.198,10.099,126.309,10.099,124.729,11.028z"/>
	
		<linearGradient id="SVGID_2_" gradientUnits="userSpaceOnUse" x1="-204.6908" y1="-379.2087" x2="-203.6908" y2="-379.2087" gradientTransform="matrix(6.5815 4.7931 4.7931 -6.5815 3289.9006 -1484.6962)">
		<stop  offset="0" style="stop-color:#9D1B33"/>
		<stop  offset="0.9946" style="stop-color:#C72128"/>
		<stop  offset="1" style="stop-color:#C72128"/>
	</linearGradient>
	<path fill="url(#SVGID_2_)" d="M122.189,18.276l0.031,10.346l0.031,5.328v3.872c0,0.929,0.248,1.797,0.681,2.54
		c0.434,0.743,1.084,1.394,1.89,1.859c1.611,0.929,3.5,0.898,5.08-0.031l16.262-9.448L122.189,18.276z"/>
	
		<linearGradient id="SVGID_3_" gradientUnits="userSpaceOnUse" x1="-195.2263" y1="-368.246" x2="-194.2263" y2="-368.246" gradientTransform="matrix(4.1515 3.0234 3.0234 -4.1515 2061.8528 -899.1998)">
		<stop  offset="0" style="stop-color:#C72128"/>
		<stop  offset="0.0054" style="stop-color:#C72128"/>
		<stop  offset="1" style="stop-color:#9D1B33"/>
	</linearGradient>
	<path fill="url(#SVGID_3_)" d="M131.977,24.162l-9.695,11.523v2.137c0,0.929,0.248,1.797,0.681,2.54
		c0.434,0.743,1.084,1.394,1.89,1.859c1.611,0.929,3.5,0.898,5.08-0.031l16.231-9.448L131.977,24.162z"/>
	<path fill="#FFFFFF" d="M127.734,23.418h-1.053c-0.681,0-1.177-0.093-1.518-0.31s-0.496-0.558-0.496-0.991
		c0-0.465,0.155-0.774,0.496-0.991s0.836-0.341,1.518-0.341h4.925c0.681,0,1.177,0.124,1.518,0.341s0.496,0.558,0.496,0.991
		s-0.155,0.774-0.496,0.991s-0.836,0.31-1.518,0.31h-1.053v7.93c0,0.681-0.124,1.177-0.341,1.518
		c-0.248,0.341-0.589,0.496-1.053,0.496c-0.465,0-0.836-0.155-1.053-0.496c-0.248-0.341-0.341-0.836-0.341-1.518v-7.93H127.734z"/>
	<path fill="#FFFFFF" d="M137.925,32.401l-3.779-9.51c-0.062-0.124-0.093-0.248-0.124-0.403s-0.031-0.279-0.031-0.434
		c0-0.403,0.155-0.743,0.434-1.022s0.62-0.403,1.053-0.403c0.31,0,0.558,0.093,0.743,0.279s0.372,0.496,0.558,0.929l2.633,7.063
		l2.447-6.97c0.155-0.496,0.341-0.836,0.558-1.022s0.496-0.279,0.836-0.279c0.434,0,0.774,0.124,1.022,0.341
		c0.248,0.248,0.372,0.558,0.372,0.96c0,0.155-0.031,0.31-0.062,0.496c-0.031,0.155-0.093,0.341-0.155,0.496l-3.686,9.324
		c-0.155,0.434-0.372,0.712-0.589,0.898s-0.496,0.279-0.867,0.279c-0.31,0-0.589-0.093-0.805-0.248
		C138.265,33.052,138.08,32.773,137.925,32.401z"/>
</g>
</svg>
