<?xml version="1.0" encoding="utf-8"?>
<!-- Generator: Adobe Illustrator 19.0.0, SVG Export Plug-In . SVG Version: 6.00 Build 0)  -->
<svg version="1.1" id="Layer_1" xmlns="http://www.w3.org/2000/svg" xmlns:xlink="http://www.w3.org/1999/xlink" x="0px" y="0px"
	 viewBox="0 0 312.2 54" style="enable-background:new 0 0 312.2 54;" xml:space="preserve">
<style type="text/css">
	.st0{fill:#CA2128;}
	.st1{fill:url(#XMLID_153_);}
	.st2{fill:url(#XMLID_154_);}
	.st3{fill:url(#XMLID_155_);}
	.st4{fill:url(#XMLID_156_);}
	.st5{fill:url(#XMLID_157_);}
	.st6{fill:url(#XMLID_158_);}
	.st7{fill:url(#XMLID_159_);}
	.st8{fill:url(#XMLID_160_);}
</style>
<g id="XMLID_3_">
	<g id="XMLID_34_">
		<polygon id="XMLID_36_" class="st0" points="284.1,27.8 301.2,4.7 301.1,27.8 295.1,22.5 		"/>
		<polygon id="XMLID_35_" class="st0" points="283.2,13.8 310.4,13.3 295.1,22.5 		"/>
	</g>
	<g id="XMLID_4_">
		<g id="XMLID_22_">
			<linearGradient id="XMLID_153_" gradientUnits="userSpaceOnUse" x1="25.3061" y1="229.7907" x2="25.3061" y2="-51.1211">
				<stop  offset="0.6224" style="stop-color:#801517"/>
				<stop  offset="0.7391" style="stop-color:#F05826"/>
			</linearGradient>
			<path id="XMLID_31_" class="st1" d="M33.2,23.8H15.7l-0.9-1.2l-1.3,1.2L6.3,49.1h7l1.3-1.2l-0.9-0.4l1.8-6.2h12.9
				c11,0,15.9-4.4,15.9-10.8C44.3,26.3,40.5,23.8,33.2,23.8z M29.5,36.2H17l2-7.1h12.4c4.4,0,6,0.7,6,2.7
				C37.5,34.7,34.6,36.2,29.5,36.2z"/>
			<linearGradient id="XMLID_154_" gradientUnits="userSpaceOnUse" x1="65.4848" y1="229.7925" x2="65.4848" y2="-51.1218">
				<stop  offset="0.6224" style="stop-color:#801517"/>
				<stop  offset="0.7391" style="stop-color:#F05826"/>
			</linearGradient>
			<path id="XMLID_28_" class="st2" d="M84.5,30.6c0-4.5-3.8-6.8-11-6.8H55.6L55,22.7l-1.3,1.2l-7.3,25.3h7l0,0l1.3-1.1L54,47.2
				l1.8-6.3h10.8l7.1,8.2h7.6l1.3-1.2L80,47.4l-6.3-6.9C80.5,39.3,84.5,35.6,84.5,30.6z M69.6,35.6H57.4l1.9-6.6h12.6
				c4.3,0,5.9,0.7,5.9,2.7C77.7,34.1,75.1,35.6,69.6,35.6z"/>
			<linearGradient id="XMLID_155_" gradientUnits="userSpaceOnUse" x1="255.6668" y1="229.7907" x2="255.6668" y2="-51.1211">
				<stop  offset="0.6224" style="stop-color:#801517"/>
				<stop  offset="0.7391" style="stop-color:#F05826"/>
			</linearGradient>
			<polygon id="XMLID_27_" class="st3" points="279.5,23.8 272.1,23.8 271.7,22.7 270.4,23.8 252.9,43.5 247.5,23.8 240.8,23.8 
				240.4,22.7 239.1,23.8 231.9,49.1 238.8,49.1 240.1,48 239.2,47.8 243.5,32.8 248.5,49.1 255.3,49.1 256.6,48 256.4,47.9 
				269.9,32.9 265.3,49.1 272.2,49.1 273.5,48 272.6,47.8 			"/>
			<linearGradient id="XMLID_156_" gradientUnits="userSpaceOnUse" x1="182.989" y1="229.7907" x2="182.989" y2="-51.1211">
				<stop  offset="0.6224" style="stop-color:#801517"/>
				<stop  offset="0.7391" style="stop-color:#F05826"/>
			</linearGradient>
			<polygon id="XMLID_26_" class="st4" points="185.4,23.8 184.4,22.7 183.1,23.8 175.9,49.1 182.9,49.1 184.2,48 183.4,47.4 
				190.1,23.8 			"/>
			<linearGradient id="XMLID_157_" gradientUnits="userSpaceOnUse" x1="150.9082" y1="229.7945" x2="150.9082" y2="-51.1225">
				<stop  offset="0.6224" style="stop-color:#801517"/>
				<stop  offset="0.7391" style="stop-color:#F05826"/>
			</linearGradient>
			<path id="XMLID_25_" class="st5" d="M167.4,23.8c-0.1-0.5-0.4-1.2-0.4-1.2l-1.3,1.2l-17.5,19.7l-5.4-19.7h-6.4l-0.6-1.2l-1.3,1.2
				l-7.3,25.3h6.9l0,0l0,0h0l0,0l1.3-1.2l-0.8-0.6l4.2-14.6l4.9,16.3h6.8l1.3-1.2l-0.1-0.2l13.4-14.9l-4.7,16.3h6.9l1.3-1.2
				l-0.9-0.4l6.8-23.8H167.4z"/>
			<linearGradient id="XMLID_158_" gradientUnits="userSpaceOnUse" x1="107.7148" y1="229.7907" x2="107.7148" y2="-51.1211">
				<stop  offset="0.6224" style="stop-color:#801517"/>
				<stop  offset="0.7391" style="stop-color:#F05826"/>
			</linearGradient>
			<polygon id="XMLID_24_" class="st6" points="97.9,23.8 97,22.7 95.7,23.8 88.4,49.1 119.8,49.1 121.1,48 120.2,47.7 121.2,44 
				96.9,44 98.3,39 121.1,39 122.4,37.8 121.6,37.5 122.7,33.9 99.8,33.9 101.2,29 125.4,29 126.7,27.8 125.8,27.5 127,23.8 			"/>
			<linearGradient id="XMLID_159_" gradientUnits="userSpaceOnUse" x1="212.6212" y1="233.0829" x2="212.6212" y2="-52.2939">
				<stop  offset="0.6224" style="stop-color:#801517"/>
				<stop  offset="0.7391" style="stop-color:#F05826"/>
			</linearGradient>
			<path id="XMLID_23_" class="st7" d="M225,22.7l-1.3,1.2l-3.5,12.1c-1.6,5.6-5.4,8.4-11.1,8.4c-6.4,0-8.6-2.8-7-8.4l3.5-12.1h-4.8
				c-0.1-0.3-1-1.2-1-1.2l-1.3,1.2l-3.3,11.6c-2.6,9,2.1,14.1,12.9,14.1c11,0,16.5-4.3,19.3-14.1l3.3-11.6h-5L225,22.7z"/>
		</g>
		<linearGradient id="XMLID_160_" gradientUnits="userSpaceOnUse" x1="144.1753" y1="224.0671" x2="144.1753" y2="-49.0823">
			<stop  offset="0.6224" style="stop-color:#D22A27"/>
			<stop  offset="0.7391" style="stop-color:#F7971D"/>
		</linearGradient>
		<path id="XMLID_5_" class="st8" d="M16.8,40.3L14.6,48h-7l7.3-25.3h19.6c7.3,0,11.1,2.5,11.1,6.8c0,6.3-4.9,10.8-15.9,10.8H16.8z
			 M20.4,27.9l-2,7.1h12.4c5.1,0,8.1-1.5,8.1-4.4c0-2-1.6-2.7-6-2.7H20.4z M67.9,39.7H57.1L54.8,48h-7L55,22.7h19.7
			c7.2,0,11,2.2,11,6.8c0,5-4,8.8-10.7,9.9l7.7,8.5L82.6,48H75L67.9,39.7z M60.5,27.9l-1.9,6.6h12.2c5.6,0,8.2-1.5,8.2-3.9
			c0-2-1.6-2.7-5.9-2.7H60.5z M97,22.7h31.3l-1.6,5.2h-24.2l-1.4,5h23l-1.6,5H99.6l-1.4,5h24.3l-1.5,5.2H89.7L97,22.7z M140.1,31.6
			L135.4,48h-6.9l7.3-25.3h8.3l5.4,19.7L167,22.7h9L168.7,48h-6.9l4.7-16.3L151.8,48H145L140.1,31.6z M184.4,22.7h7L184.2,48h-7
			L184.4,22.7z M196.5,34.3l3.3-11.6h7l-3.5,12.1c-1.6,5.6,0.6,8.4,7,8.4c5.7,0,9.5-2.8,11.1-8.4l3.5-12.1h7l-3.3,11.6
			c-2.8,9.8-8.3,14.1-19.3,14.1C198.6,48.4,193.9,43.3,196.5,34.3z M244.8,31.6L240.1,48h-6.9l7.3-25.3h8.3l5.4,19.7l17.5-19.7h9
			L273.5,48h-6.9l4.7-16.3L256.6,48h-6.8L244.8,31.6z"/>
	</g>
</g>
</svg>
