<?xml version="1.0" encoding="utf-8"?>
<!-- Generator: Adobe Illustrator 16.0.0, SVG Export Plug-In . SVG Version: 6.00 Build 0)  -->
<!DOCTYPE svg PUBLIC "-//W3C//DTD SVG 1.1//EN" "http://www.w3.org/Graphics/SVG/1.1/DTD/svg11.dtd">
<svg version="1.1" id="Layer_1" xmlns="http://www.w3.org/2000/svg" xmlns:xlink="http://www.w3.org/1999/xlink" x="0px" y="0px"
	 width="636.579px" height="512px" viewBox="0 0 636.579 512" enable-background="new 0 0 636.579 512" xml:space="preserve">
<path fill-rule="evenodd" clip-rule="evenodd" fill="#C0C0C0" d="M0,448.359C0,320.062,0,191.765,0,63.469
	c0.36-1.471,0.962-2.928,1.048-4.414C2.512,33.423,25.402,7.357,50.679,2.648c3.746-0.698,7.516-1.275,11.275-1.907
	c170.89,0,341.78,0,512.671,0c2.879,0.444,5.77,0.835,8.638,1.344c25.337,4.506,46.811,25.882,51.501,51.254
	c0.624,3.374,1.211,6.753,1.815,10.13c0,128.297,0,256.594,0,384.891c-0.356,1.342-0.944,2.668-1.035,4.027
	c-1.797,26.777-23.944,51.82-50.408,56.893c-3.49,0.668-7.007,1.209-10.511,1.807c-170.891,0-341.781,0-512.671,0
	c-2.882-0.441-5.772-0.832-8.643-1.338c-25.356-4.477-46.77-25.791-51.507-51.256C1.178,455.119,0.601,451.736,0,448.359z
	 M62.797,64.512c-0.223,1.279-0.421,1.895-0.421,2.51c-0.021,20-0.067,40.001,0.074,60.001c0.009,1.346,1.143,3.126,2.294,3.941
	c3.68,2.6,7.611,4.843,11.449,7.219c79.383,49.146,158.777,98.275,238.111,147.502c2.951,1.83,5.056,1.822,7.99-0.008
	c30.195-18.846,60.479-37.55,90.742-56.284c52.411-32.444,104.815-64.903,157.275-97.271c2.834-1.75,4.047-3.603,4.011-7.065
	c-0.19-18.58-0.083-37.161-0.104-55.743c-0.001-1.441-0.193-2.881-0.336-4.875c-1.762,0.929-2.916,1.446-3.979,2.11
	c-16.737,10.45-33.457,20.928-50.189,31.385C453.553,139.28,387.382,180.61,321.25,222.004c-2.174,1.361-3.794,1.373-5.942-0.009
	c-8.242-5.3-16.599-10.422-24.909-15.615C215.82,159.763,141.24,113.146,66.654,66.542C65.593,65.878,64.437,65.369,62.797,64.512z"
	/>
</svg>
