<?xml version="1.0" encoding="utf-8"?>
<!-- Generator: Adobe Illustrator 16.0.0, SVG Export Plug-In . SVG Version: 6.00 Build 0)  -->
<!DOCTYPE svg PUBLIC "-//W3C//DTD SVG 1.1//EN" "http://www.w3.org/Graphics/SVG/1.1/DTD/svg11.dtd">
<svg version="1.1" id="Layer_1" xmlns="http://www.w3.org/2000/svg" xmlns:xlink="http://www.w3.org/1999/xlink" x="0px" y="0px"
	 width="565.926px" height="565.926px" viewBox="719.768 -12.221 565.926 565.926"
	 enable-background="new 719.768 -12.221 565.926 565.926" xml:space="preserve">
<g>
	<path fill-rule="evenodd" clip-rule="evenodd" fill="#3B5999" d="M1011.53,553.705c-5.866,0-11.731,0-17.599,0
		c-2.571-0.362-5.138-0.758-7.714-1.084c-13.423-1.696-27.033-2.475-40.237-5.21c-62.617-12.972-115.121-43.717-156.953-92.059
		c-38.928-44.985-61.405-97.284-67.282-156.595c-0.635-6.407-1.316-12.811-1.977-19.216c0-6.177,0-12.351,0-18.525
		c0.356-2.1,0.827-4.187,1.05-6.3c1.053-9.946,1.472-19.995,3.137-29.834c9.818-58.011,34.882-108.537,76.015-150.669
		c48.102-49.271,106.564-77.555,175.202-84.496c6.255-0.632,12.507-1.291,18.76-1.938c5.867,0,11.732,0,17.599,0
		c2.57,0.363,5.136,0.759,7.712,1.084c13.422,1.694,27.034,2.466,40.237,5.205c62.777,13.021,115.386,43.876,157.255,92.413
		c38.75,44.92,61.123,97.104,66.983,156.245c0.635,6.408,1.316,12.811,1.977,19.216c0,5.866,0,11.732,0,17.6
		c-0.326,1.797-0.744,3.585-0.964,5.396c-1.705,14.043-2.327,28.309-5.223,42.099c-15.126,72.013-52.614,129.914-112.12,173.162
		c-40.727,29.599-86.425,46.715-136.633,51.533C1024.342,552.347,1017.938,553.045,1011.53,553.705z M1052.581,148.227
		c-1.134-0.219-1.716-0.427-2.299-0.427c-15.121-0.005-30.272-0.597-45.356,0.161c-24.737,1.242-43.236,18.076-46.292,42.438
		c-1.487,11.861-0.851,23.988-1.19,35.994c-0.05,1.783-0.181,3.563-0.302,5.887c-8.767,0-17.008,0-25.54,0
		c0,14.293,0.135,28.014-0.084,41.729c-0.063,3.965,1.338,5.023,5.068,4.888c6.739-0.244,13.495-0.068,20.901-0.068
		c0,43.474,0,86.404,0,129.759c2.334,0,4.001,0,5.666,0c14.196,0,28.393,0.001,42.589-0.001c6.676-0.001,6.688-0.003,6.688-6.848
		c0.005-39.193,0.061-78.387-0.08-117.579c-0.016-4.22,1.16-5.582,5.451-5.428c8.938,0.322,17.896,0.029,26.845,0.133
		c2.772,0.031,4.121-0.64,4.368-3.782c0.619-7.823,1.71-15.608,2.526-23.418c0.664-6.36,1.205-12.732,1.854-19.67
		c-2.26,0-3.918,0-5.575,0c-10.494,0-20.987-0.101-31.478,0.061c-3.059,0.047-4.084-1.007-4.029-3.978
		c0.141-7.713-0.084-15.434,0.146-23.142c0.248-8.27,3.519-11.365,11.735-11.457c8.178-0.09,16.356-0.042,24.534-0.035
		c2.184,0.001,3.91-0.201,3.892-3.168C1052.533,176.397,1052.581,162.517,1052.581,148.227z"/>
	<path fill-rule="evenodd" clip-rule="evenodd" fill="#FFFFFF" d="M1052.581,148.227c0,14.291-0.048,28.17,0.039,42.048
		c0.019,2.967-1.708,3.169-3.892,3.168c-8.178-0.007-16.356-0.055-24.534,0.035c-8.217,0.091-11.487,3.187-11.735,11.457
		c-0.23,7.708-0.006,15.429-0.146,23.142c-0.055,2.971,0.971,4.025,4.029,3.978c10.49-0.161,20.983-0.061,31.478-0.061
		c1.657,0,3.315,0,5.575,0c-0.649,6.938-1.19,13.31-1.854,19.67c-0.816,7.81-1.907,15.595-2.526,23.418
		c-0.247,3.143-1.596,3.813-4.368,3.782c-8.948-0.104-17.907,0.189-26.845-0.133c-4.291-0.154-5.467,1.208-5.451,5.428
		c0.141,39.192,0.085,78.386,0.08,117.579c0,6.845-0.012,6.847-6.688,6.848c-14.196,0.002-28.393,0.001-42.589,0.001
		c-1.665,0-3.332,0-5.666,0c0-43.354,0-86.285,0-129.759c-7.406,0-14.162-0.176-20.901,0.068c-3.73,0.136-5.132-0.923-5.068-4.888
		c0.219-13.715,0.084-27.436,0.084-41.729c8.532,0,16.773,0,25.54,0c0.121-2.324,0.252-4.104,0.302-5.887
		c0.34-12.006-0.297-24.133,1.19-35.994c3.056-24.362,21.555-41.196,46.292-42.438c15.084-0.758,30.235-0.167,45.356-0.161
		C1050.865,147.8,1051.448,148.008,1052.581,148.227z"/>
</g>
</svg>
