<?xml version="1.0" encoding="utf-8"?>
<!-- Generator: Adobe Illustrator 16.0.0, SVG Export Plug-In . SVG Version: 6.00 Build 0)  -->
<!DOCTYPE svg PUBLIC "-//W3C//DTD SVG 1.1//EN" "http://www.w3.org/Graphics/SVG/1.1/DTD/svg11.dtd">
<svg version="1.1" id="Capa_1" xmlns="http://www.w3.org/2000/svg" xmlns:xlink="http://www.w3.org/1999/xlink" x="0px" y="0px"
	 width="595.279px" height="595.281px" viewBox="123.305 0 595.279 595.281" enable-background="new 123.305 0 595.279 595.281"
	 xml:space="preserve">
<g>
	<g>
		<circle id="XMLID_30_" fill="#DC4E41" cx="420.945" cy="297.635" r="297.64"/>
	</g>
	<g>
		<path fill="#DC4E41" d="M226.931,310.958c-1.056,51.211,34.216,100.082,82.737,116.021
			c45.703,15.354,101.896,3.867,132.309-35.272c22.204-27.426,27.25-63.987,24.847-98.146c-39.141-0.351-78.28-0.233-117.362-0.176
			c-0.064,13.944,0,27.834,0.058,41.778c23.436,0.646,46.876,0.35,70.312,0.822c-5.916,20.272-19.393,39.14-39.846,46.462
			c-39.49,17.402-89.879-5.332-102.305-46.76c-14.999-39.671,9.556-87.544,50.097-99.084c25.139-8.845,51.035,1.114,72.545,14.182
			c10.897-10.197,21.096-21.095,31.112-32.109c-24.438-20.448-55.843-32.986-88.128-30.232
			C279.961,189.197,224.528,247.677,226.931,310.958z"/>
		<path fill="#DC4E41" d="M542.997,258.219c-0.117,11.662-0.239,23.383-0.297,35.039c-11.721,0.117-23.377,0.175-35.039,0.233
			c0,11.662,0,23.261,0,34.923c11.662,0.059,23.382,0.116,35.039,0.238c0.116,11.662,0.116,23.318,0.233,35.039
			c11.604,0,23.266-0.059,34.922,0c0.063-11.721,0.117-23.377,0.239-35.098c11.656-0.058,23.377-0.116,35.038-0.175
			c0-11.662,0-23.261,0-34.922c-11.656-0.059-23.377-0.117-35.038-0.234c-0.064-11.661-0.176-23.382-0.239-35.038
			C566.199,258.219,554.596,258.219,542.997,258.219z"/>
		<g>
			<path fill="#FFFFFF" d="M226.931,310.958c-2.403-63.281,53.025-121.761,116.37-122.52c32.285-2.754,63.695,9.783,88.128,30.231
				c-10.022,11.021-20.221,21.913-31.113,32.11c-21.509-13.068-47.406-23.026-72.545-14.182
				c-40.546,11.545-65.101,59.418-50.097,99.084c12.427,41.427,62.814,64.162,102.306,46.76
				c20.447-7.322,33.93-26.189,39.846-46.463c-23.436-0.467-46.876-0.175-70.312-0.822c-0.059-13.943-0.116-27.834-0.059-41.777
				c39.082-0.059,78.223-0.175,117.362,0.175c2.403,34.164-2.637,70.726-24.847,98.146c-30.412,39.141-86.6,50.627-132.309,35.272
				C261.153,411.04,225.875,362.169,226.931,310.958z"/>
			<path fill="#FFFFFF" d="M542.997,258.219c11.604,0,23.202,0,34.858,0c0.063,11.662,0.175,23.383,0.239,35.039
				c11.656,0.117,23.377,0.175,35.038,0.233c0,11.662,0,23.261,0,34.923c-11.656,0.059-23.377,0.116-35.038,0.175
				c-0.117,11.721-0.176,23.377-0.239,35.098c-11.656-0.059-23.324,0-34.922,0c-0.111-11.721-0.111-23.377-0.233-35.039
				c-11.657-0.122-23.377-0.176-35.039-0.239c0-11.662,0-23.26,0-34.922c11.662-0.059,23.323-0.117,35.039-0.233
				C542.758,281.601,542.875,269.881,542.997,258.219z"/>
		</g>
	</g>
</g>
</svg>
